<mxfile host="app.diagrams.net" modified="2024-02-18T21:04:18.843Z" agent="Mozilla/5.0 (X11; Ubuntu; Linux x86_64; rv:122.0) Gecko/20100101 Firefox/122.0" etag="--V6Ypuh_cV_WnWUuLZw" version="23.1.5" type="github">
  <diagram name="Page-1" id="QfqvCRqg2DWQY-_hMG5H">
    <mxGraphModel dx="1509" dy="814" grid="1" gridSize="10" guides="1" tooltips="1" connect="1" arrows="1" fold="1" page="1" pageScale="1" pageWidth="850" pageHeight="1100" math="0" shadow="0">
      <root>
        <mxCell id="0" />
        <mxCell id="1" parent="0" />
        <mxCell id="uWr9vOYG07v56L4Gf-Hv-62" value="" style="rounded=0;whiteSpace=wrap;html=1;fillColor=none;" vertex="1" parent="1">
          <mxGeometry x="10" y="87" width="440" height="960" as="geometry" />
        </mxCell>
        <mxCell id="uWr9vOYG07v56L4Gf-Hv-63" value="" style="rounded=0;whiteSpace=wrap;html=1;fillColor=none;" vertex="1" parent="1">
          <mxGeometry x="470" y="87" width="370" height="680" as="geometry" />
        </mxCell>
        <mxCell id="uWr9vOYG07v56L4Gf-Hv-1" value="&lt;font style=&quot;font-size: 36px;&quot;&gt;Diagrammes de flux&lt;br&gt;&lt;/font&gt;" style="text;html=1;align=center;verticalAlign=middle;resizable=0;points=[];autosize=1;strokeColor=none;fillColor=none;" vertex="1" parent="1">
          <mxGeometry x="255" y="10" width="340" height="60" as="geometry" />
        </mxCell>
        <mxCell id="uWr9vOYG07v56L4Gf-Hv-2" value="&lt;font style=&quot;font-size: 24px;&quot;&gt;L&#39;utilisateur note une musique&lt;/font&gt;" style="text;html=1;align=center;verticalAlign=middle;resizable=0;points=[];autosize=1;strokeColor=none;fillColor=none;" vertex="1" parent="1">
          <mxGeometry x="480" y="100" width="340" height="40" as="geometry" />
        </mxCell>
        <mxCell id="uWr9vOYG07v56L4Gf-Hv-3" value="&lt;font style=&quot;font-size: 24px;&quot;&gt;L&#39;utilisateur se connecte&lt;/font&gt;" style="text;html=1;align=center;verticalAlign=middle;resizable=0;points=[];autosize=1;strokeColor=none;fillColor=none;" vertex="1" parent="1">
          <mxGeometry x="90" y="87" width="280" height="40" as="geometry" />
        </mxCell>
        <mxCell id="uWr9vOYG07v56L4Gf-Hv-4" value="" style="ellipse;html=1;shape=startState;fillColor=#000000;strokeColor=#ff0000;" vertex="1" parent="1">
          <mxGeometry x="170" y="164" width="30" height="30" as="geometry" />
        </mxCell>
        <mxCell id="uWr9vOYG07v56L4Gf-Hv-5" value="" style="edgeStyle=orthogonalEdgeStyle;html=1;verticalAlign=bottom;endArrow=open;endSize=8;strokeColor=#ff0000;rounded=0;" edge="1" source="uWr9vOYG07v56L4Gf-Hv-4" parent="1" target="uWr9vOYG07v56L4Gf-Hv-8">
          <mxGeometry relative="1" as="geometry">
            <mxPoint x="185" y="254" as="targetPoint" />
          </mxGeometry>
        </mxCell>
        <mxCell id="uWr9vOYG07v56L4Gf-Hv-11" value="" style="edgeStyle=orthogonalEdgeStyle;rounded=0;orthogonalLoop=1;jettySize=auto;html=1;" edge="1" parent="1" source="uWr9vOYG07v56L4Gf-Hv-8">
          <mxGeometry relative="1" as="geometry">
            <mxPoint x="185" y="384" as="targetPoint" />
          </mxGeometry>
        </mxCell>
        <mxCell id="uWr9vOYG07v56L4Gf-Hv-8" value="L&#39;utilisateur entre ses informations" style="rounded=1;whiteSpace=wrap;html=1;" vertex="1" parent="1">
          <mxGeometry x="125" y="254" width="120" height="60" as="geometry" />
        </mxCell>
        <mxCell id="uWr9vOYG07v56L4Gf-Hv-14" value="" style="ellipse;html=1;shape=startState;fillColor=#000000;strokeColor=#ff0000;" vertex="1" parent="1">
          <mxGeometry x="550" y="167" width="30" height="30" as="geometry" />
        </mxCell>
        <mxCell id="uWr9vOYG07v56L4Gf-Hv-15" value="" style="edgeStyle=orthogonalEdgeStyle;html=1;verticalAlign=bottom;endArrow=open;endSize=8;strokeColor=#ff0000;rounded=0;" edge="1" source="uWr9vOYG07v56L4Gf-Hv-14" parent="1" target="uWr9vOYG07v56L4Gf-Hv-18">
          <mxGeometry relative="1" as="geometry">
            <mxPoint x="565" y="257" as="targetPoint" />
          </mxGeometry>
        </mxCell>
        <mxCell id="uWr9vOYG07v56L4Gf-Hv-21" style="edgeStyle=orthogonalEdgeStyle;rounded=0;orthogonalLoop=1;jettySize=auto;html=1;" edge="1" parent="1" source="uWr9vOYG07v56L4Gf-Hv-17" target="uWr9vOYG07v56L4Gf-Hv-20">
          <mxGeometry relative="1" as="geometry" />
        </mxCell>
        <mxCell id="uWr9vOYG07v56L4Gf-Hv-29" style="edgeStyle=orthogonalEdgeStyle;rounded=0;orthogonalLoop=1;jettySize=auto;html=1;" edge="1" parent="1" source="uWr9vOYG07v56L4Gf-Hv-17" target="uWr9vOYG07v56L4Gf-Hv-28">
          <mxGeometry relative="1" as="geometry">
            <Array as="points">
              <mxPoint x="780" y="427" />
            </Array>
          </mxGeometry>
        </mxCell>
        <mxCell id="uWr9vOYG07v56L4Gf-Hv-17" value="L&#39;utilisateur est connecté ?" style="rhombus;whiteSpace=wrap;html=1;" vertex="1" parent="1">
          <mxGeometry x="480" y="377" width="170" height="100" as="geometry" />
        </mxCell>
        <mxCell id="uWr9vOYG07v56L4Gf-Hv-19" style="edgeStyle=orthogonalEdgeStyle;rounded=0;orthogonalLoop=1;jettySize=auto;html=1;" edge="1" parent="1" source="uWr9vOYG07v56L4Gf-Hv-18" target="uWr9vOYG07v56L4Gf-Hv-17">
          <mxGeometry relative="1" as="geometry" />
        </mxCell>
        <mxCell id="uWr9vOYG07v56L4Gf-Hv-18" value="L&#39;utilisateur appuie sur une des cinq étoiles disponible" style="rounded=1;whiteSpace=wrap;html=1;" vertex="1" parent="1">
          <mxGeometry x="505" y="257" width="120" height="60" as="geometry" />
        </mxCell>
        <mxCell id="uWr9vOYG07v56L4Gf-Hv-25" value="" style="edgeStyle=orthogonalEdgeStyle;rounded=0;orthogonalLoop=1;jettySize=auto;html=1;" edge="1" parent="1" source="uWr9vOYG07v56L4Gf-Hv-20" target="uWr9vOYG07v56L4Gf-Hv-24">
          <mxGeometry relative="1" as="geometry" />
        </mxCell>
        <mxCell id="uWr9vOYG07v56L4Gf-Hv-20" value="La note est sauvegardé en BD" style="rounded=1;whiteSpace=wrap;html=1;" vertex="1" parent="1">
          <mxGeometry x="505" y="527" width="120" height="60" as="geometry" />
        </mxCell>
        <mxCell id="uWr9vOYG07v56L4Gf-Hv-22" value="" style="ellipse;html=1;shape=endState;fillColor=#000000;strokeColor=#ff0000;" vertex="1" parent="1">
          <mxGeometry x="550" y="727" width="30" height="30" as="geometry" />
        </mxCell>
        <mxCell id="uWr9vOYG07v56L4Gf-Hv-26" value="" style="edgeStyle=orthogonalEdgeStyle;rounded=0;orthogonalLoop=1;jettySize=auto;html=1;" edge="1" parent="1" source="uWr9vOYG07v56L4Gf-Hv-24" target="uWr9vOYG07v56L4Gf-Hv-22">
          <mxGeometry relative="1" as="geometry" />
        </mxCell>
        <mxCell id="uWr9vOYG07v56L4Gf-Hv-24" value="L&#39;affichage est mis à jour" style="whiteSpace=wrap;html=1;rounded=1;" vertex="1" parent="1">
          <mxGeometry x="505" y="627" width="120" height="60" as="geometry" />
        </mxCell>
        <mxCell id="uWr9vOYG07v56L4Gf-Hv-27" value="[yes]" style="text;html=1;align=center;verticalAlign=middle;resizable=0;points=[];autosize=1;strokeColor=none;fillColor=none;" vertex="1" parent="1">
          <mxGeometry x="515" y="477" width="50" height="30" as="geometry" />
        </mxCell>
        <mxCell id="uWr9vOYG07v56L4Gf-Hv-31" value="" style="edgeStyle=orthogonalEdgeStyle;rounded=0;orthogonalLoop=1;jettySize=auto;html=1;" edge="1" parent="1" source="uWr9vOYG07v56L4Gf-Hv-28" target="uWr9vOYG07v56L4Gf-Hv-30">
          <mxGeometry relative="1" as="geometry" />
        </mxCell>
        <mxCell id="uWr9vOYG07v56L4Gf-Hv-28" value="L&#39;utilisateur est envoyé sur la page de connection" style="rounded=1;whiteSpace=wrap;html=1;" vertex="1" parent="1">
          <mxGeometry x="720" y="462" width="120" height="60" as="geometry" />
        </mxCell>
        <mxCell id="uWr9vOYG07v56L4Gf-Hv-30" value="" style="ellipse;html=1;shape=endState;fillColor=#000000;strokeColor=#ff0000;" vertex="1" parent="1">
          <mxGeometry x="765" y="557" width="30" height="30" as="geometry" />
        </mxCell>
        <mxCell id="uWr9vOYG07v56L4Gf-Hv-32" value="[no]" style="text;html=1;align=center;verticalAlign=middle;resizable=0;points=[];autosize=1;strokeColor=none;fillColor=none;" vertex="1" parent="1">
          <mxGeometry x="650" y="397" width="40" height="30" as="geometry" />
        </mxCell>
        <mxCell id="uWr9vOYG07v56L4Gf-Hv-34" value="" style="endArrow=none;html=1;rounded=0;" edge="1" parent="1">
          <mxGeometry width="50" height="50" relative="1" as="geometry">
            <mxPoint x="90" y="394" as="sourcePoint" />
            <mxPoint x="290" y="394" as="targetPoint" />
          </mxGeometry>
        </mxCell>
        <mxCell id="uWr9vOYG07v56L4Gf-Hv-35" value="" style="edgeStyle=orthogonalEdgeStyle;rounded=0;orthogonalLoop=1;jettySize=auto;html=1;" edge="1" parent="1" target="uWr9vOYG07v56L4Gf-Hv-36">
          <mxGeometry relative="1" as="geometry">
            <mxPoint x="125" y="394" as="sourcePoint" />
            <mxPoint x="125" y="464" as="targetPoint" />
          </mxGeometry>
        </mxCell>
        <mxCell id="uWr9vOYG07v56L4Gf-Hv-42" value="" style="edgeStyle=orthogonalEdgeStyle;rounded=0;orthogonalLoop=1;jettySize=auto;html=1;" edge="1" parent="1" source="uWr9vOYG07v56L4Gf-Hv-36" target="uWr9vOYG07v56L4Gf-Hv-41">
          <mxGeometry relative="1" as="geometry" />
        </mxCell>
        <mxCell id="uWr9vOYG07v56L4Gf-Hv-36" value="L&#39;utilisateur appuie sur le boutton &quot;Pas encore inscrit?&quot;" style="rounded=1;whiteSpace=wrap;html=1;" vertex="1" parent="1">
          <mxGeometry x="55" y="474" width="140" height="60" as="geometry" />
        </mxCell>
        <mxCell id="uWr9vOYG07v56L4Gf-Hv-39" value="" style="edgeStyle=orthogonalEdgeStyle;rounded=0;orthogonalLoop=1;jettySize=auto;html=1;" edge="1" parent="1" target="uWr9vOYG07v56L4Gf-Hv-40">
          <mxGeometry relative="1" as="geometry">
            <mxPoint x="220" y="394" as="sourcePoint" />
            <mxPoint x="195" y="394" as="targetPoint" />
            <Array as="points">
              <mxPoint x="280" y="394" />
            </Array>
          </mxGeometry>
        </mxCell>
        <mxCell id="uWr9vOYG07v56L4Gf-Hv-47" style="edgeStyle=orthogonalEdgeStyle;rounded=0;orthogonalLoop=1;jettySize=auto;html=1;" edge="1" parent="1" source="uWr9vOYG07v56L4Gf-Hv-40" target="uWr9vOYG07v56L4Gf-Hv-45">
          <mxGeometry relative="1" as="geometry" />
        </mxCell>
        <mxCell id="uWr9vOYG07v56L4Gf-Hv-40" value="L&#39;utilisateur appuie sur le boutton&quot;Se connecter&quot;" style="rounded=1;whiteSpace=wrap;html=1;" vertex="1" parent="1">
          <mxGeometry x="220" y="474" width="120" height="60" as="geometry" />
        </mxCell>
        <mxCell id="uWr9vOYG07v56L4Gf-Hv-44" style="edgeStyle=orthogonalEdgeStyle;rounded=0;orthogonalLoop=1;jettySize=auto;html=1;" edge="1" parent="1" source="uWr9vOYG07v56L4Gf-Hv-41" target="uWr9vOYG07v56L4Gf-Hv-43">
          <mxGeometry relative="1" as="geometry" />
        </mxCell>
        <mxCell id="uWr9vOYG07v56L4Gf-Hv-41" value="Redirection vers la page d&#39;inscription" style="whiteSpace=wrap;html=1;rounded=1;" vertex="1" parent="1">
          <mxGeometry x="65" y="694" width="120" height="60" as="geometry" />
        </mxCell>
        <mxCell id="uWr9vOYG07v56L4Gf-Hv-43" value="" style="ellipse;html=1;shape=endState;fillColor=#000000;strokeColor=#ff0000;" vertex="1" parent="1">
          <mxGeometry x="110" y="804" width="30" height="30" as="geometry" />
        </mxCell>
        <mxCell id="uWr9vOYG07v56L4Gf-Hv-46" style="edgeStyle=orthogonalEdgeStyle;rounded=0;orthogonalLoop=1;jettySize=auto;html=1;" edge="1" parent="1" source="uWr9vOYG07v56L4Gf-Hv-45" target="uWr9vOYG07v56L4Gf-Hv-40">
          <mxGeometry relative="1" as="geometry">
            <Array as="points">
              <mxPoint x="430" y="654" />
              <mxPoint x="430" y="504" />
            </Array>
          </mxGeometry>
        </mxCell>
        <mxCell id="uWr9vOYG07v56L4Gf-Hv-49" style="edgeStyle=orthogonalEdgeStyle;rounded=0;orthogonalLoop=1;jettySize=auto;html=1;" edge="1" parent="1" source="uWr9vOYG07v56L4Gf-Hv-45" target="uWr9vOYG07v56L4Gf-Hv-50">
          <mxGeometry relative="1" as="geometry">
            <mxPoint x="280" y="764" as="targetPoint" />
          </mxGeometry>
        </mxCell>
        <mxCell id="uWr9vOYG07v56L4Gf-Hv-45" value="Les mots de passe sont équivalents?" style="rhombus;whiteSpace=wrap;html=1;" vertex="1" parent="1">
          <mxGeometry x="195" y="604" width="170" height="100" as="geometry" />
        </mxCell>
        <mxCell id="uWr9vOYG07v56L4Gf-Hv-48" value="[no]" style="text;html=1;align=center;verticalAlign=middle;resizable=0;points=[];autosize=1;strokeColor=none;fillColor=none;" vertex="1" parent="1">
          <mxGeometry x="368.75" y="624" width="40" height="30" as="geometry" />
        </mxCell>
        <mxCell id="uWr9vOYG07v56L4Gf-Hv-51" style="edgeStyle=orthogonalEdgeStyle;rounded=0;orthogonalLoop=1;jettySize=auto;html=1;" edge="1" parent="1" source="uWr9vOYG07v56L4Gf-Hv-50" target="uWr9vOYG07v56L4Gf-Hv-40">
          <mxGeometry relative="1" as="geometry">
            <Array as="points">
              <mxPoint x="440" y="799" />
              <mxPoint x="440" y="504" />
            </Array>
          </mxGeometry>
        </mxCell>
        <mxCell id="uWr9vOYG07v56L4Gf-Hv-56" style="edgeStyle=orthogonalEdgeStyle;rounded=0;orthogonalLoop=1;jettySize=auto;html=1;" edge="1" parent="1" source="uWr9vOYG07v56L4Gf-Hv-50" target="uWr9vOYG07v56L4Gf-Hv-55">
          <mxGeometry relative="1" as="geometry" />
        </mxCell>
        <mxCell id="uWr9vOYG07v56L4Gf-Hv-50" value="&lt;div&gt;Les informations sont&amp;nbsp;&lt;/div&gt;&lt;div&gt;dans le bon format ?&lt;/div&gt;" style="rhombus;whiteSpace=wrap;html=1;" vertex="1" parent="1">
          <mxGeometry x="191.25" y="754" width="177.5" height="90" as="geometry" />
        </mxCell>
        <mxCell id="uWr9vOYG07v56L4Gf-Hv-52" value="[no]" style="text;html=1;align=center;verticalAlign=middle;resizable=0;points=[];autosize=1;strokeColor=none;fillColor=none;" vertex="1" parent="1">
          <mxGeometry x="365" y="774" width="40" height="30" as="geometry" />
        </mxCell>
        <mxCell id="uWr9vOYG07v56L4Gf-Hv-53" value="[yes]" style="text;html=1;align=center;verticalAlign=middle;resizable=0;points=[];autosize=1;strokeColor=none;fillColor=none;" vertex="1" parent="1">
          <mxGeometry x="275" y="704" width="50" height="30" as="geometry" />
        </mxCell>
        <mxCell id="uWr9vOYG07v56L4Gf-Hv-54" value="[yes]" style="text;html=1;align=center;verticalAlign=middle;resizable=0;points=[];autosize=1;strokeColor=none;fillColor=none;" vertex="1" parent="1">
          <mxGeometry x="280" y="844" width="50" height="30" as="geometry" />
        </mxCell>
        <mxCell id="uWr9vOYG07v56L4Gf-Hv-58" value="" style="edgeStyle=orthogonalEdgeStyle;rounded=0;orthogonalLoop=1;jettySize=auto;html=1;" edge="1" parent="1" source="uWr9vOYG07v56L4Gf-Hv-55" target="uWr9vOYG07v56L4Gf-Hv-57">
          <mxGeometry relative="1" as="geometry" />
        </mxCell>
        <mxCell id="uWr9vOYG07v56L4Gf-Hv-55" value="Le compte est créer" style="whiteSpace=wrap;html=1;rounded=1;" vertex="1" parent="1">
          <mxGeometry x="220" y="914" width="120" height="60" as="geometry" />
        </mxCell>
        <mxCell id="uWr9vOYG07v56L4Gf-Hv-60" style="edgeStyle=orthogonalEdgeStyle;rounded=0;orthogonalLoop=1;jettySize=auto;html=1;" edge="1" parent="1" source="uWr9vOYG07v56L4Gf-Hv-57" target="uWr9vOYG07v56L4Gf-Hv-59">
          <mxGeometry relative="1" as="geometry" />
        </mxCell>
        <mxCell id="uWr9vOYG07v56L4Gf-Hv-57" value="L&#39;utilisateur est renvoyé sur la page d&#39;accueil en étant automatiquement connecté" style="whiteSpace=wrap;html=1;rounded=1;" vertex="1" parent="1">
          <mxGeometry x="20" y="914" width="140" height="60" as="geometry" />
        </mxCell>
        <mxCell id="uWr9vOYG07v56L4Gf-Hv-59" value="" style="ellipse;html=1;shape=endState;fillColor=#000000;strokeColor=#ff0000;" vertex="1" parent="1">
          <mxGeometry x="75" y="1004" width="30" height="30" as="geometry" />
        </mxCell>
        <mxCell id="uWr9vOYG07v56L4Gf-Hv-64" value="" style="rounded=0;whiteSpace=wrap;html=1;fillColor=none;" vertex="1" parent="1">
          <mxGeometry y="10" width="850" height="1050" as="geometry" />
        </mxCell>
      </root>
    </mxGraphModel>
  </diagram>
</mxfile>
